<svg width="154" height="50" viewBox="0 0 154 50" fill="none" xmlns="http://www.w3.org/2000/svg">
<path d="M1 41.0626C1 41.0626 6.99172 39.3949 13.804 43.4014C26.7604 51.0213 27.4995 37.0673 32.3039 30.339C36.6994 24.1833 40.3397 27.9391 45.2338 35.4671C48.8433 41.0192 54.1038 50.3391 59.5516 48.8387C64.5315 47.4672 68.0618 36.5363 74.9645 33.7563C80.4352 31.5531 84.8811 37.606 91.1808 35.4671C99.7267 32.5654 103.544 15.4828 109.652 15.4828C117.19 15.4828 122.498 1 129.356 1C136.173 1 136.535 9.5306 143.993 15.4828C149.694 20.0333 153 15.4828 153 15.4828" stroke="#61FF00" stroke-width="2" stroke-linecap="round" stroke-linejoin="round"/>
</svg>
