<svg width="127" height="190" viewBox="0 0 127 190" fill="none" xmlns="http://www.w3.org/2000/svg">
<mask id="mask0_1_6254" style="mask-type:alpha" maskUnits="userSpaceOnUse" x="1" y="0" width="126" height="190">
<path fill-rule="evenodd" clip-rule="evenodd" d="M1.54954 184.183C1.07314 185.839 2.0857 187.559 3.77633 187.892C10.6172 189.239 17.7112 189.948 24.9828 189.948C81.3159 189.948 126.983 147.415 126.983 94.9482C126.983 44.5136 84.7853 3.25834 31.4793 0.137793C29.7895 0.0388714 28.3828 1.40021 28.3828 3.09291L28.3828 44.7304C28.3828 46.3159 29.6196 47.6189 31.1952 47.7971C56.4316 50.6515 75.9828 70.6733 75.9828 94.9482C75.9828 121.182 53.1493 142.448 24.9828 142.448C22.1334 142.448 19.3385 142.231 16.6164 141.812C15.0664 141.574 13.5462 142.484 13.1127 143.991L1.54954 184.183Z" fill="url(#paint0_linear_1_6254)"/>
</mask>
<g mask="url(#mask0_1_6254)">
<path fill-rule="evenodd" clip-rule="evenodd" d="M1.54954 184.183C1.07314 185.839 2.0857 187.559 3.77633 187.892C10.6172 189.239 17.7112 189.948 24.9828 189.948C81.3159 189.948 126.983 147.415 126.983 94.9482C126.983 44.5136 84.7853 3.25834 31.4793 0.137793C29.7895 0.0388714 28.3828 1.40021 28.3828 3.09291L28.3828 44.7304C28.3828 46.3159 29.6196 47.6189 31.1952 47.7971C56.4316 50.6515 75.9828 70.6733 75.9828 94.9482C75.9828 121.182 53.1493 142.448 24.9828 142.448C22.1334 142.448 19.3385 142.231 16.6164 141.812C15.0664 141.574 13.5462 142.484 13.1127 143.991L1.54954 184.183Z" fill="url(#paint1_linear_1_6254)"/>
<path fill-rule="evenodd" clip-rule="evenodd" d="M1.54954 184.183C1.07314 185.839 2.0857 187.559 3.77633 187.892C10.6172 189.239 17.7112 189.948 24.9828 189.948C81.3159 189.948 126.983 147.415 126.983 94.9482C126.983 44.5136 84.7853 3.25834 31.4793 0.137793C29.7895 0.0388714 28.3828 1.40021 28.3828 3.09291L28.3828 44.7304C28.3828 46.3159 29.6196 47.6189 31.1952 47.7971C56.4316 50.6515 75.9828 70.6733 75.9828 94.9482C75.9828 121.182 53.1493 142.448 24.9828 142.448C22.1334 142.448 19.3385 142.231 16.6164 141.812C15.0664 141.574 13.5462 142.484 13.1127 143.991L1.54954 184.183Z" fill="#DC91FF" style="mix-blend-mode:screen"/>
</g>
<defs>
<linearGradient id="paint0_linear_1_6254" x1="126.983" y1="0" x2="63.0818" y2="72.7293" gradientUnits="userSpaceOnUse">
<stop/>
<stop offset="1"/>
</linearGradient>
<linearGradient id="paint1_linear_1_6254" x1="63.8275" y1="0" x2="63.8275" y2="189.948" gradientUnits="userSpaceOnUse">
<stop/>
<stop offset="1" stop-color="#1C1C1C" stop-opacity="0.6"/>
<stop offset="1" stop-opacity="0.6"/>
</linearGradient>
</defs>
</svg>
