<svg width="82" height="117" viewBox="0 0 82 117" fill="none" xmlns="http://www.w3.org/2000/svg">
<mask id="mask0_1_6431" style="mask-type:alpha" maskUnits="userSpaceOnUse" x="0" y="1" width="81" height="115">
<path fill-rule="evenodd" clip-rule="evenodd" d="M0.248169 24.6466C0.248169 17.6088 1.01347 10.7497 2.46539 4.14801C2.94085 1.98617 5.1464 0.715279 7.28449 1.28818L45.4585 11.5169C47.5848 12.0866 48.8334 14.266 48.4554 16.4347C47.9905 19.1022 47.7482 21.8461 47.7482 24.6466C47.7482 44.8502 60.3617 62.1077 78.1435 68.9738C80.1697 69.7561 81.3929 71.9031 80.8307 74.0011L70.5902 112.219C70.0137 114.371 67.7873 115.645 65.6705 114.952C27.6856 102.519 0.248169 66.7868 0.248169 24.6466Z" fill="url(#paint0_linear_1_6431)"/>
</mask>
<g mask="url(#mask0_1_6431)">
<path fill-rule="evenodd" clip-rule="evenodd" d="M0.248169 24.6466C0.248169 17.6088 1.01347 10.7497 2.46539 4.14801C2.94085 1.98617 5.1464 0.715279 7.28449 1.28818L45.4585 11.5169C47.5848 12.0866 48.8334 14.266 48.4554 16.4347C47.9905 19.1022 47.7482 21.8461 47.7482 24.6466C47.7482 44.8502 60.3617 62.1077 78.1435 68.9738C80.1697 69.7561 81.3929 71.9031 80.8307 74.0011L70.5902 112.219C70.0137 114.371 67.7873 115.645 65.6705 114.952C27.6856 102.519 0.248169 66.7868 0.248169 24.6466Z" fill="#01A4FF"/>
</g>
<defs>
<linearGradient id="paint0_linear_1_6431" x1="81.8416" y1="0.25" x2="43.2067" y2="46.812" gradientUnits="userSpaceOnUse">
<stop/>
<stop offset="1"/>
</linearGradient>
</defs>
</svg>
