<svg width="30" height="30" viewBox="0 0 30 30" fill="none" xmlns="http://www.w3.org/2000/svg">
<g clip-path="url(#clip0_1_5832)">
<path d="M12.1875 25.3125V17.8125H17.8125V25.3125H25.3125V14.0625C25.3126 13.9394 25.2884 13.8174 25.2414 13.7036C25.1943 13.5898 25.1253 13.4864 25.0383 13.3992L15.6633 4.02422C15.5762 3.93706 15.4728 3.86791 15.359 3.82073C15.2452 3.77355 15.1232 3.74927 15 3.74927C14.8768 3.74927 14.7548 3.77355 14.641 3.82073C14.5272 3.86791 14.4238 3.93706 14.3367 4.02422L4.96172 13.3992C4.87469 13.4864 4.80567 13.5898 4.75862 13.7036C4.71157 13.8174 4.6874 13.9394 4.6875 14.0625V25.3125H12.1875Z" stroke="#F7F0F3" stroke-width="1.125" stroke-linecap="round" stroke-linejoin="round"/>
</g>
<defs>
<clipPath id="clip0_1_5832">
<rect width="30" height="30" fill="white"/>
</clipPath>
</defs>
</svg>
