<svg width="73" height="68" viewBox="0 0 73 68" fill="none" xmlns="http://www.w3.org/2000/svg">
<mask id="mask0_1_6268" style="mask-type:alpha" maskUnits="userSpaceOnUse" x="2" y="1" width="70" height="66">
<path fill-rule="evenodd" clip-rule="evenodd" d="M49.2522 3.87752C48.135 2.07531 45.8004 1.45119 43.9754 2.53082C24.8045 13.8723 9.97398 31.0088 2.32573 51.2937C1.50846 53.4613 2.81852 55.812 5.06612 56.3729L46.7281 66.7701C48.7191 67.2669 50.746 66.1673 51.5942 64.2987C55.3173 56.0961 61.4438 49.0704 69.1516 43.9872C71.0662 42.7246 71.751 40.1723 70.5427 38.223L49.2522 3.87752Z" fill="url(#paint0_linear_1_6268)"/>
</mask>
<g mask="url(#mask0_1_6268)">
<path fill-rule="evenodd" clip-rule="evenodd" d="M49.2522 3.87752C48.135 2.07531 45.8004 1.45119 43.9754 2.53082C24.8045 13.8723 9.97398 31.0088 2.32573 51.2937C1.50846 53.4613 2.81852 55.812 5.06612 56.3729L46.7281 66.7701C48.7191 67.2669 50.746 66.1673 51.5942 64.2987C55.3173 56.0961 61.4438 49.0704 69.1516 43.9872C71.0662 42.7246 71.751 40.1723 70.5427 38.223L49.2522 3.87752Z" fill="#00FFA2"/>
</g>
<defs>
<linearGradient id="paint0_linear_1_6268" x1="72.7664" y1="0.666687" x2="53.6795" y2="35.7145" gradientUnits="userSpaceOnUse">
<stop/>
<stop offset="1"/>
</linearGradient>
</defs>
</svg>
