<svg width="68" height="68" viewBox="0 0 68 68" fill="none" xmlns="http://www.w3.org/2000/svg">
<mask id="mask0_1_6438" style="mask-type:alpha" maskUnits="userSpaceOnUse" x="1" y="2" width="66" height="65">
<path fill-rule="evenodd" clip-rule="evenodd" d="M45.753 4.14663C44.6448 2.22729 42.1821 1.56781 40.3167 2.76464C22.604 14.1295 8.91228 31.2149 1.84982 51.4129C1.10473 53.5438 2.37782 55.8193 4.55831 56.4035L42.8813 66.6722C44.9218 67.2189 47.0192 66.0759 47.8492 64.1333C51.3291 55.9883 57.0195 49.0134 64.1664 43.9624C65.96 42.6948 66.6126 40.2765 65.5144 38.3744L45.753 4.14663Z" fill="url(#paint0_linear_1_6438)"/>
</mask>
<g mask="url(#mask0_1_6438)">
<path fill-rule="evenodd" clip-rule="evenodd" d="M45.753 4.14663C44.6448 2.22729 42.1821 1.56781 40.3167 2.76464C22.604 14.1295 8.91228 31.2149 1.84982 51.4129C1.10473 53.5438 2.37782 55.8193 4.55831 56.4035L42.8813 66.6722C44.9218 67.2189 47.0192 66.0759 47.8492 64.1333C51.3291 55.9883 57.0195 49.0134 64.1664 43.9624C65.96 42.6948 66.6126 40.2765 65.5144 38.3744L45.753 4.14663Z" fill="#00FFA2"/>
</g>
<defs>
<linearGradient id="paint0_linear_1_6438" x1="67.4981" y1="0.666687" x2="47.6968" y2="34.5309" gradientUnits="userSpaceOnUse">
<stop/>
<stop offset="1"/>
</linearGradient>
</defs>
</svg>
