<svg width="46" height="53" viewBox="0 0 46 53" fill="none" xmlns="http://www.w3.org/2000/svg">
<mask id="mask0_1_6445" style="mask-type:alpha" maskUnits="userSpaceOnUse" x="2" y="0" width="44" height="52">
<path fill-rule="evenodd" clip-rule="evenodd" d="M22.6685 49.2497C23.7276 51.084 26.027 51.757 27.9899 50.9613C32.3215 49.2055 36.9709 48.0702 41.8279 47.6657C44.0294 47.4823 45.8236 45.7091 45.8236 43.5V4C45.8236 1.79086 44.0314 -0.00874704 41.8241 0.0826659C28.4673 0.635839 15.8225 3.94687 4.44413 9.46132C2.41551 10.4445 1.71089 12.95 2.83804 14.9023L22.6685 49.2497Z" fill="url(#paint0_linear_1_6445)"/>
</mask>
<g mask="url(#mask0_1_6445)">
<path fill-rule="evenodd" clip-rule="evenodd" d="M22.6685 49.2497C23.7276 51.084 26.027 51.757 27.9899 50.9613C32.3215 49.2055 36.9709 48.0702 41.8279 47.6657C44.0294 47.4823 45.8236 45.7091 45.8236 43.5V4C45.8236 1.79086 44.0314 -0.00874704 41.8241 0.0826659C28.4673 0.635839 15.8225 3.94687 4.44413 9.46132C2.41551 10.4445 1.71089 12.95 2.83804 14.9023L22.6685 49.2497Z" fill="#FF41EC"/>
</g>
<defs>
<linearGradient id="paint0_linear_1_6445" x1="45.8236" y1="0" x2="29.2453" y2="24.3378" gradientUnits="userSpaceOnUse">
<stop/>
<stop offset="1"/>
</linearGradient>
</defs>
</svg>
