<svg width="49" height="53" viewBox="0 0 49 53" fill="none" xmlns="http://www.w3.org/2000/svg">
<mask id="mask0_1_6275" style="mask-type:alpha" maskUnits="userSpaceOnUse" x="2" y="0" width="47" height="52">
<path fill-rule="evenodd" clip-rule="evenodd" d="M24.1017 49.4954C25.1698 51.2184 27.3526 51.854 29.243 51.1219C34.0994 49.2411 39.3353 48.0393 44.8138 47.6437C47.0172 47.4846 48.8106 45.7091 48.8106 43.5V4C48.8106 1.79086 47.0185 -0.0075849 44.8107 0.0717044C30.3664 0.590467 16.6924 3.90673 4.39566 9.45522C2.2537 10.4217 1.51396 13.0572 2.75206 15.0545L24.1017 49.4954Z" fill="url(#paint0_linear_1_6275)"/>
</mask>
<g mask="url(#mask0_1_6275)">
<path fill-rule="evenodd" clip-rule="evenodd" d="M24.1017 49.4954C25.1698 51.2184 27.3526 51.854 29.243 51.1219C34.0994 49.2411 39.3353 48.0393 44.8138 47.6437C47.0172 47.4846 48.8106 45.7091 48.8106 43.5V4C48.8106 1.79086 47.0185 -0.0075849 44.8107 0.0717044C30.3664 0.590467 16.6924 3.90673 4.39566 9.45522C2.2537 10.4217 1.51396 13.0572 2.75206 15.0545L24.1017 49.4954Z" fill="#41F4FF"/>
</g>
<defs>
<linearGradient id="paint0_linear_1_6275" x1="48.8106" y1="0" x2="32.6929" y2="25.4051" gradientUnits="userSpaceOnUse">
<stop/>
<stop offset="1"/>
</linearGradient>
</defs>
</svg>
