<svg width="118" height="190" viewBox="0 0 118 190" fill="none" xmlns="http://www.w3.org/2000/svg">
<mask id="mask0_1_6424" style="mask-type:alpha" maskUnits="userSpaceOnUse" x="1" y="0" width="117" height="190">
<path fill-rule="evenodd" clip-rule="evenodd" d="M1.13537 184.271C0.699859 185.896 1.68519 187.567 3.33184 187.913C9.67271 189.247 16.2464 189.948 22.9839 189.948C75.451 189.948 117.984 147.415 117.984 94.9482C117.984 44.5874 78.7973 3.37908 29.2525 0.151735C27.5607 0.041534 26.1506 1.40452 26.1506 3.09986L26.1506 44.7431C26.1506 46.3234 27.3803 47.6226 28.9485 47.8191C52.3666 50.7529 70.484 70.7348 70.484 94.9482C70.484 121.182 49.2175 142.448 22.9839 142.448C20.4256 142.448 17.9145 142.246 15.4658 141.857C13.8794 141.604 12.3164 142.543 11.9007 144.094L1.13537 184.271Z" fill="url(#paint0_linear_1_6424)"/>
</mask>
<g mask="url(#mask0_1_6424)">
<path fill-rule="evenodd" clip-rule="evenodd" d="M1.13537 184.271C0.699859 185.896 1.68519 187.567 3.33184 187.913C9.67271 189.247 16.2464 189.948 22.9839 189.948C75.451 189.948 117.984 147.415 117.984 94.9482C117.984 44.5874 78.7973 3.37908 29.2525 0.151735C27.5607 0.041534 26.1506 1.40452 26.1506 3.09986L26.1506 44.7431C26.1506 46.3234 27.3803 47.6226 28.9485 47.8191C52.3666 50.7529 70.484 70.7348 70.484 94.9482C70.484 121.182 49.2175 142.448 22.9839 142.448C20.4256 142.448 17.9145 142.246 15.4658 141.857C13.8794 141.604 12.3164 142.543 11.9007 144.094L1.13537 184.271Z" fill="url(#paint1_linear_1_6424)"/>
<path fill-rule="evenodd" clip-rule="evenodd" d="M1.13537 184.271C0.699859 185.896 1.68519 187.567 3.33184 187.913C9.67271 189.247 16.2464 189.948 22.9839 189.948C75.451 189.948 117.984 147.415 117.984 94.9482C117.984 44.5874 78.7973 3.37908 29.2525 0.151735C27.5607 0.041534 26.1506 1.40452 26.1506 3.09986L26.1506 44.7431C26.1506 46.3234 27.3803 47.6226 28.9485 47.8191C52.3666 50.7529 70.484 70.7348 70.484 94.9482C70.484 121.182 49.2175 142.448 22.9839 142.448C20.4256 142.448 17.9145 142.246 15.4658 141.857C13.8794 141.604 12.3164 142.543 11.9007 144.094L1.13537 184.271Z" fill="#FF0000" style="mix-blend-mode:screen"/>
</g>
<defs>
<linearGradient id="paint0_linear_1_6424" x1="117.984" y1="0" x2="53.6566" y2="68.1901" gradientUnits="userSpaceOnUse">
<stop/>
<stop offset="1"/>
</linearGradient>
<linearGradient id="paint1_linear_1_6424" x1="59.1628" y1="0" x2="59.1628" y2="189.948" gradientUnits="userSpaceOnUse">
<stop/>
<stop offset="1" stop-color="#1C1C1C" stop-opacity="0.6"/>
<stop offset="1" stop-opacity="0.6"/>
</linearGradient>
</defs>
</svg>
