<svg width="88" height="117" viewBox="0 0 88 117" fill="none" xmlns="http://www.w3.org/2000/svg">
<mask id="mask0_1_6261" style="mask-type:alpha" maskUnits="userSpaceOnUse" x="0" y="1" width="87" height="115">
<path fill-rule="evenodd" clip-rule="evenodd" d="M0.266479 24.6466C0.266479 17.5547 1.10085 10.6442 2.68316 3.99581C3.18289 1.89605 5.32358 0.664854 7.41776 1.18748L48.9356 11.5487C51.125 12.0951 52.4109 14.3421 52.0023 16.5614C51.5185 19.1891 51.2665 21.8904 51.2665 24.6466C51.2665 44.8873 64.8593 62.1711 84.0067 69.0115C86.1065 69.7616 87.368 71.9805 86.7515 74.1233L75.746 112.378C75.1459 114.464 72.9879 115.698 70.9091 115.073C29.9182 102.752 0.266479 66.9243 0.266479 24.6466Z" fill="url(#paint0_linear_1_6261)"/>
</mask>
<g mask="url(#mask0_1_6261)">
<path fill-rule="evenodd" clip-rule="evenodd" d="M0.266479 24.6466C0.266479 17.5547 1.10085 10.6442 2.68316 3.99581C3.18289 1.89605 5.32358 0.664854 7.41776 1.18748L48.9356 11.5487C51.125 12.0951 52.4109 14.3421 52.0023 16.5614C51.5185 19.1891 51.2665 21.8904 51.2665 24.6466C51.2665 44.8873 64.8593 62.1711 84.0067 69.0115C86.1065 69.7616 87.368 71.9805 86.7515 74.1233L75.746 112.378C75.1459 114.464 72.9879 115.698 70.9091 115.073C29.9182 102.752 0.266479 66.9243 0.266479 24.6466Z" fill="#FFF501"/>
</g>
<defs>
<linearGradient id="paint0_linear_1_6261" x1="87.8721" y1="0.25" x2="49.8327" y2="49.4722" gradientUnits="userSpaceOnUse">
<stop/>
<stop offset="1"/>
</linearGradient>
</defs>
</svg>
