<svg width="138" height="89" viewBox="0 0 138 89" fill="none" xmlns="http://www.w3.org/2000/svg">
<path opacity="0.1" fill-rule="evenodd" clip-rule="evenodd" d="M1.04431 55.9111C1.04431 55.9111 6.36726 53.5817 12.4192 59.1779C23.9295 69.8215 24.5861 50.3305 28.8542 40.9323C32.7591 32.334 35.9931 37.5801 40.3409 48.0952C43.5476 55.8505 48.2209 68.8686 53.0607 66.7728C57.4848 64.8571 60.621 49.5886 66.7532 45.7056C71.6134 42.6281 75.563 51.0829 81.1595 48.0952C88.7516 44.042 92.1429 20.1809 97.569 20.1809C104.266 20.1809 108.981 0 115.073 0C121.13 0 121.952 11.8669 128.577 20.1809C133.642 26.5371 136.079 20.1809 136.079 20.1809V88.2917H1.04431V55.9111Z" fill="url(#paint0_linear_1_5939)"/>
<path d="M1.04431 72.9685C1.04431 72.9685 6.36726 70.6728 12.4192 76.188C23.9295 86.6775 24.5861 67.4686 28.8542 58.2065C32.7591 49.7326 35.9931 54.9028 40.3409 65.2657C43.5476 72.9087 48.2209 85.7384 53.0607 83.673C57.4848 81.785 60.621 66.7375 66.7532 62.9107C71.6134 59.8777 75.563 68.2101 81.1595 65.2657C88.7516 61.2712 92.1429 37.7555 97.569 37.7555C104.266 37.7555 108.981 17.8186 115.073 17.8186C121.13 17.8186 121.452 29.5618 128.077 37.7555C133.142 44.0196 136.079 37.7555 136.079 37.7555" stroke="#61FF00" stroke-width="2" stroke-linecap="round" stroke-linejoin="round"/>
<defs>
<linearGradient id="paint0_linear_1_5939" x1="25.4485" y1="44.7997" x2="25.4485" y2="88.2917" gradientUnits="userSpaceOnUse">
<stop offset="1" stop-color="white" stop-opacity="0.01"/>
</linearGradient>
</defs>
</svg>
