<svg width="25" height="25" viewBox="0 0 25 25" fill="none" xmlns="http://www.w3.org/2000/svg">
<path d="M22.4927 7.50311C22.3741 7.06291 22.1422 6.66145 21.8202 6.3387C21.4982 6.01596 21.0972 5.78318 20.6573 5.66353C19.026 5.21561 12.5 5.20832 12.5 5.20832C12.5 5.20832 5.975 5.20103 4.34271 5.62915C3.90305 5.75431 3.50294 5.99038 3.1808 6.31471C2.85866 6.63904 2.6253 7.04074 2.50313 7.48124C2.07292 9.11249 2.06875 12.4958 2.06875 12.4958C2.06875 12.4958 2.06458 15.8958 2.49167 17.5104C2.73125 18.4031 3.43438 19.1083 4.32813 19.3489C5.97604 19.7969 12.4844 19.8042 12.4844 19.8042C12.4844 19.8042 19.0104 19.8114 20.6417 19.3844C21.0818 19.2649 21.4831 19.0327 21.8059 18.7106C22.1287 18.3885 22.3619 17.9877 22.4823 17.5479C22.9135 15.9177 22.9167 12.5354 22.9167 12.5354C22.9167 12.5354 22.9375 9.13436 22.4927 7.50311ZM10.4125 15.6302L10.4177 9.3802L15.8417 12.5104L10.4125 15.6302Z" fill="#ED2121"/>
</svg>
