<svg width="34" height="267" viewBox="0 0 34 267" fill="none" xmlns="http://www.w3.org/2000/svg">
<g filter="url(#filter0_d_1_5912)">
<path d="M10.4916 105.664C10.4916 102.352 13.1641 99.643 16.4749 99.5975V99.5975C19.8166 99.5516 22.5374 102.235 22.5374 105.578L22.5374 178L23.4876 250.368C23.5354 254.008 20.5839 256.999 16.9435 256.999V256.999C13.3728 256.999 10.4917 254.117 10.4917 250.546L10.4917 178L10.4916 105.664Z" fill="#4ACBBC" fill-opacity="0.8" shape-rendering="crispEdges"/>
</g>
<path d="M11 6C11 2.68629 13.6863 -2.36925e-09 17 -5.29187e-09V-5.29187e-09C20.3137 -8.21449e-09 23 2.68629 23 6L23 250C23 253.314 20.3137 256 17 256V256C13.6863 256 11 253.314 11 250L11 6Z" fill="#F2F7FF"/>
<defs>
<filter id="filter0_d_1_5912" x="0.491638" y="89.5969" width="32.9966" height="177.402" filterUnits="userSpaceOnUse" color-interpolation-filters="sRGB">
<feFlood flood-opacity="0" result="BackgroundImageFix"/>
<feColorMatrix in="SourceAlpha" type="matrix" values="0 0 0 0 0 0 0 0 0 0 0 0 0 0 0 0 0 0 127 0" result="hardAlpha"/>
<feOffset/>
<feGaussianBlur stdDeviation="5"/>
<feComposite in2="hardAlpha" operator="out"/>
<feColorMatrix type="matrix" values="0 0 0 0 0 0 0 0 0 0 0 0 0 0 0 0 0 0 0.1 0"/>
<feBlend mode="normal" in2="BackgroundImageFix" result="effect1_dropShadow_1_5912"/>
<feBlend mode="normal" in="SourceGraphic" in2="effect1_dropShadow_1_5912" result="shape"/>
</filter>
</defs>
</svg>
